# xmcd
#
# Track frame offsets: 
#        150
#        30237
#        57642
#        96317
#        103627
#        152707
#        163022
#        202467
#
# Disc length: 2962 seconds
#
# Revision: 1
# Processed by: cddbd v1.5.2PL0 Copyright (c) Steve Scherf et al.
# Submitted via: ExactAudioCopy v0.99pb5
#
DISCID=6c0b9008
DTITLE=Martha Argerich - Chopin - Piano Sonatas Nos.2 and 3
DYEAR=1989
DGENRE=Classical
TTITLE0=Piano Sonata no.2 in B flat minor, op.35 - 1. Grave - Doppio M
TTITLE0=ovimento
TTITLE1=Piano Sonata no.2 in B flat minor, op.35 - 2. Scherzo
TTITLE2=Piano Sonata no.2 in B flat minor, op.35 - 3. Marche funebre: 
TTITLE2=Lento
TTITLE3=Piano Sonata no.2 in B flat minor, op.35 - 4. Finale: Presto
TTITLE4=Piano Sonata no.3 in B minor, op.58 - 1. Allegro Maestoso
TTITLE5=Piano Sonata no.3 in B minor, op.58 - 2. Molto Vivace
TTITLE6=Piano Sonata no.3 in B minor, op.58 - 3. Largo
TTITLE7=Piano Sonata no.3 in B minor, op.58 - 4. Presto ma non tanto
EXTD=
EXTT0=
EXTT1=
EXTT2=
EXTT3=
EXTT4=
EXTT5=
EXTT6=
EXTT7=
PLAYORDER=
